<?xml version="1.0" encoding="UTF-8"?>
<svg width="204px" height="52px" viewBox="0 0 204 52" version="1.1" xmlns="http://www.w3.org/2000/svg" xmlns:xlink="http://www.w3.org/1999/xlink">
    <!-- Generator: sketchtool 53 (72520) - https://sketchapp.com -->
    <title>5E4ADA94-AFD4-47D0-8D45-F3CD508041E6</title>
    <desc>Created with sketchtool.</desc>
    <defs>
        <polygon id="path-1" points="0 0.086125 56.1893053 0.086125 56.1893053 51.34375 0 51.34375"></polygon>
    </defs>
    <g id="Page-1" stroke="none" stroke-width="1" fill="none" fill-rule="evenodd">
        <g id="01-Homepage" transform="translate(-80.000000, -20.000000)">
            <g id="Menu/White">
                <g id="Logo-White" transform="translate(80.000000, 20.000000)">
                    <g id="Group-3" transform="translate(0.000000, 0.570125)">
                        <mask id="mask-2" fill="white">
                            <use xlink:href="#path-1"></use>
                        </mask>
                        <g id="Clip-2"></g>
                        <path d="M53.9745684,46.4791781 L37.2099368,46.4791781 L37.1425684,25.0158344 L20.0596211,46.4791781 L20.0040421,25.3338344 L2.74593684,46.7955219 L2.78130526,3.94667812 L19.9501474,3.94667812 L20.0040421,25.3338344 L37.0768842,4.10402187 L37.1425684,25.0158344 L54.0385684,3.78933437 L53.9745684,46.4791781 Z M50.0688842,0.085959375 L6.12277895,0.085959375 C2.74088421,0.085959375 -0.00101052632,2.58689687 -0.00101052632,5.67414687 L-0.00101052632,45.7587094 C-0.00101052632,48.8426469 2.74088421,51.3452406 6.12277895,51.3452406 L50.0688842,51.3452406 C53.4490947,51.3452406 56.1893053,48.8426469 56.1893053,45.7587094 L56.1893053,5.67414687 C56.1893053,2.58689687 53.4490947,0.085959375 50.0688842,0.085959375 L50.0688842,0.085959375 Z" id="Fill-1" fill="#FFFFFF" mask="url(#mask-2)"></path>
                    </g>
                    <path d="M77.0100598,44.4045618 C76.9529636,42.9621849 76.8958673,41.2352941 76.8958673,39.4741897 L76.8597064,39.4741897 C76.444807,41.0030012 75.9176183,42.7154862 75.4284937,44.1218487 L73.8830886,48.8019208 L71.6468189,48.8019208 L70.2917346,44.1722689 C69.8768352,42.7478992 69.463839,41.0588235 69.1441001,39.4741897 L69.1060359,39.4741897 C69.0470364,41.0930372 68.9728113,42.9441777 68.896683,44.442377 L68.6530723,49 L66,49 L66.8107667,37 L70.6286025,37 L71.8733007,41.0210084 C72.2862969,42.394958 72.6631321,43.8877551 72.9429038,45.2941176 L73.0190321,45.2941176 C73.3597064,43.907563 73.7917346,42.3409364 74.2237629,40.9885954 L75.5598151,37 L79.3243611,37 L80,49 L77.2156063,49 L77.0100598,44.4045618 Z" id="Fill-4" fill="#FFFFFF"></path>
                    <path d="M84.6666667,45.9194299 L83.8237132,49 L81,49 L84.6847558,37 L88.2428877,37 L92,49 L89.0659431,49 L88.1361618,45.9194299 L84.6666667,45.9194299 Z M87.7237296,43.8903226 L86.9730308,41.3444861 C86.7776681,40.6297074 86.5624075,39.724081 86.3815162,39.0291073 L86.3308666,39.0291073 C86.1680645,39.7420855 85.9727019,40.6495124 85.7936195,41.3444861 L85.0592008,43.8903226 L87.7237296,43.8903226 Z" id="Fill-6" fill="#FFFFFF"></path>
                    <polygon id="Fill-8" fill="#FFFFFF" points="94.162827 39.2793698 91 39.2793698 91 37 100 37 100 39.2793698 96.8037876 39.2793698 96.8037876 49 94.162827 49"></polygon>
                    <polygon id="Fill-10" fill="#FFFFFF" points="109.458746 43.9266096 104.834512 43.9266096 104.834512 46.7757767 110 46.7757767 110 49 102 49 102 37 109.735974 37 109.735974 39.2260243 104.834512 39.2260243 104.834512 41.7167942 109.458746 41.7167942"></polygon>
                    <polygon id="Fill-12" fill="#FFFFFF" points="112 37 114.895256 37 114.895256 46.7220888 120 46.7220888 120 49 112 49"></polygon>
                    <polygon id="Fill-14" fill="#FFFFFF" points="128.458746 43.9266096 123.834512 43.9266096 123.834512 46.7757767 129 46.7757767 129 49 121 49 121 37 128.73786 37 128.73786 39.2260243 123.834512 39.2260243 123.834512 41.7167942 128.458746 41.7167942"></polygon>
                    <path d="M140.831439,49.4578611 C140.323864,49.7015402 139.126894,50 137.609848,50 C133.246212,50 131,47.2741935 131,43.6700087 C131,39.3706771 134.070076,37 137.892045,37 C139.371212,37 140.492424,37.2984598 141,37.5591398 L140.399621,39.8032549 C139.839015,39.5595757 139.034091,39.3366754 138.003788,39.3366754 C135.753788,39.3366754 133.996212,40.6986341 133.996212,43.5188899 C133.996212,46.0387969 135.494318,47.6274339 138.022727,47.6274339 C138.899621,47.6274339 139.839015,47.4593142 140.418561,47.215635 L140.831439,49.4578611 Z" id="Fill-16" fill="#FFFFFF"></path>
                    <path d="M156,48.3368607 C155.129065,48.6137566 153.480845,49 151.832624,49 C149.555083,49 147.906862,48.4567901 146.756853,47.4285714 C145.629321,46.3985891 145,44.8641975 145,43.1393298 C145.016857,39.2328042 148.036097,37 152.128554,37 C153.741188,37 154.9811,37.2962963 155.591691,37.5590829 L154.99983,39.70194 C154.31432,39.4074074 153.480845,39.1975309 152.111698,39.1975309 C149.759237,39.1975309 147.963051,40.4532628 147.963051,43 C147.963051,45.4409171 149.592542,46.8553792 151.90567,46.8553792 C152.534991,46.8553792 153.055679,46.7848325 153.278563,46.6948854 L153.278563,44.2204586 L151.351269,44.2204586 L151.351269,42.1446208 L156,42.1446208 L156,48.3368607 Z" id="Fill-18" fill="#FFFFFF"></path>
                    <path d="M158,37.2627737 C158.8637,37.1036794 160.136896,37 161.588913,37 C163.357441,37 164.594874,37.2627737 165.444268,37.9545658 C166.1667,38.5176523 166.558315,39.3488753 166.558315,40.4446596 C166.558315,41.9462237 165.480032,42.9901683 164.451818,43.3601966 L164.451818,43.4138239 C165.28333,43.7498883 165.744685,44.527484 166.045102,45.6250559 C166.417047,46.9836139 166.767534,48.5423805 167,49 L164.239022,49 C164.063779,48.6639356 163.763362,47.6914941 163.428969,46.2256815 C163.092788,44.7241174 162.579575,44.3326382 161.463739,44.3147624 L160.669779,44.3147624 L160.669779,49 L158,49 L158,37.2627737 Z M160.669779,42.3716669 L161.730181,42.3716669 C163.074906,42.3716669 163.870654,41.6995382 163.870654,40.6555936 C163.870654,39.5776851 163.126763,39.012811 161.88933,39.012811 C161.23485,39.012811 160.864693,39.0485625 160.669779,39.1004022 L160.669779,42.3716669 Z" id="Fill-20" fill="#FFFFFF"></path>
                    <path d="M173.872659,50 C170.185393,50 168,47.1797443 168,43.5925603 C168,39.8202557 170.40824,37 174.074906,37 C177.906367,37 180,39.8958152 180,43.36966 C180,47.5178727 177.539326,50 173.891386,50 L173.872659,50 Z M174,47.738884 C175.90824,47.738884 177.001873,45.9273467 177.001873,43.4622203 C177.001873,41.2029933 175.94382,39.259227 174,39.259227 C172.05618,39.259227 170.962547,41.1652136 170.962547,43.5188899 C170.962547,45.891456 172.095506,47.738884 173.983146,47.738884 L174,47.738884 Z" id="Fill-22" fill="#FFFFFF"></path>
                    <path d="M184.763376,37 L184.763376,43.7804518 C184.763376,45.8285841 185.581541,46.8632807 186.980695,46.8632807 C188.435006,46.8632807 189.238463,45.883508 189.238463,43.7804518 L189.238463,37 L192,37 L192,43.6227669 C192,47.2654658 190.089722,49 186.890605,49 C183.801802,49 182,47.3363354 182,43.5873321 L182,37 L184.763376,37 Z" id="Fill-24" fill="#FFFFFF"></path>
                    <path d="M195,37.2466488 C195.874608,37.1054513 197.09906,37 198.829467,37 C200.578683,37 201.844514,37.3181412 202.681505,37.9705094 C203.480878,38.5549598 204,39.5451296 204,40.7104558 C204,41.8972297 203.608777,42.8838248 202.867712,43.5397676 C201.89906,44.3869526 200.447022,44.7944593 198.774922,44.7944593 C198.402508,44.7944593 198.069592,44.7747989 197.80627,44.7247542 L197.80627,49 L195,49 L195,37.2466488 Z M197.80627,42.6550492 C198.048903,42.7104558 198.346082,42.7247542 198.754232,42.7247542 C200.262696,42.7247542 201.19373,42.0008937 201.19373,40.7998213 C201.19373,39.7024129 200.413166,39.0500447 198.978056,39.0500447 C198.402508,39.0500447 198.013166,39.0840036 197.80627,39.1394102 L197.80627,42.6550492 Z" id="Fill-26" fill="#FFFFFF"></path>
                </g>
            </g>
        </g>
    </g>
</svg>